<svg width="502" height="421" viewBox="0 0 502 421" fill="none" xmlns="http://www.w3.org/2000/svg">
<path d="M485.118 239.016H481.743H478.368H425.597C436.699 239.016 445.7 248.016 445.7 259.118V284.909H405.495H394.994C393.765 284.909 392.769 285.905 392.769 287.134V288.032C392.769 289.261 393.765 290.257 394.994 290.257H407.818H426.214H463.965H478.952H499.523C500.806 290.257 501.846 289.217 501.846 287.934V255.744C501.845 246.505 494.356 239.016 485.118 239.016Z" fill="#D2DCFF"/>
<path d="M445.697 259.118C445.697 248.016 436.697 239.016 425.594 239.016C414.492 239.016 405.492 248.016 405.492 259.118V284.909H445.697V259.118Z" fill="#86A2E2"/>
<path d="M455.576 290.257H449.587V419.81H455.576V290.257Z" fill="#D2DCFF"/>
<path d="M455.576 290.257V309.958L449.587 308.576V290.257H455.576Z" fill="#AEC3FF"/>
<path d="M479.438 266.989V220.046C479.438 218.421 480.756 217.103 482.381 217.103H489.914C493.496 217.103 496.399 220.007 496.399 223.588C496.399 227.17 493.495 230.073 489.914 230.073H483.429V266.989C483.429 268.091 482.536 268.984 481.434 268.984C480.331 268.984 479.438 268.091 479.438 266.989Z" fill="#FE9ECC"/>
<path d="M501.844 283.669H445.697V284.909H501.844V283.669Z" fill="#AEC3FF"/>
<path d="M293.52 164.737H137.22C132.822 164.737 129.257 161.172 129.257 156.774V7.96289C129.257 3.56489 132.822 0 137.22 0H293.52C297.918 0 301.483 3.56489 301.483 7.96289V156.774C301.483 161.172 297.918 164.737 293.52 164.737Z" fill="#89AEFF"/>
<path d="M226.77 23.8459H152.609C151.289 23.8459 150.219 22.7761 150.219 21.4561C150.219 20.1361 151.289 19.0659 152.609 19.0659H226.77C228.09 19.0659 229.16 20.1361 229.16 21.4561C229.16 22.7751 228.09 23.8459 226.77 23.8459Z" fill="#D2DCFF"/>
<path d="M202.929 35.769H152.609C151.289 35.769 150.219 34.6989 150.219 33.3789C150.219 32.0589 151.289 30.989 152.609 30.989H202.929C204.249 30.989 205.319 32.0589 205.319 33.3789C205.319 34.6989 204.249 35.769 202.929 35.769Z" fill="#D2DCFF"/>
<path d="M165.179 55.3059H151.926C150.983 55.3059 150.219 54.5419 150.219 53.5989C150.219 52.6559 150.983 51.8918 151.926 51.8918H165.179C166.122 51.8918 166.886 52.6559 166.886 53.5989C166.886 54.5419 166.122 55.3059 165.179 55.3059Z" fill="#6277D7"/>
<path d="M262.419 113.928H221.463C220.52 113.928 219.756 113.164 219.756 112.221V105.324C219.756 104.381 220.52 103.617 221.463 103.617H262.419C263.362 103.617 264.126 104.381 264.126 105.324V112.221C264.126 113.163 263.362 113.928 262.419 113.928Z" fill="#D2DCFF"/>
<path d="M278.923 132.67H221.463C220.52 132.67 219.756 131.906 219.756 130.963V124.066C219.756 123.123 220.52 122.359 221.463 122.359H278.923C279.866 122.359 280.63 123.123 280.63 124.066V130.963C280.629 131.906 279.865 132.67 278.923 132.67Z" fill="#D2DCFF"/>
<path d="M175.726 143.797C175.726 142.039 177.151 140.613 178.91 140.613C166.52 140.613 156.44 130.533 156.44 118.143C156.44 105.753 166.52 95.6729 178.91 95.6729C191.3 95.6729 201.38 105.753 201.38 118.143C201.38 116.385 202.805 114.959 204.564 114.959C206.323 114.959 207.748 116.385 207.748 118.143C207.748 102.242 194.812 89.3059 178.911 89.3059C163.01 89.3059 150.074 102.242 150.074 118.143C150.074 134.044 163.01 146.98 178.911 146.98C177.152 146.981 175.726 145.555 175.726 143.797Z" fill="#D2DCFF"/>
<path d="M204.565 114.96C202.807 114.96 201.381 116.386 201.381 118.144C201.381 130.534 191.301 140.614 178.911 140.614C177.153 140.614 175.727 142.039 175.727 143.798C175.727 145.557 177.152 146.982 178.911 146.982C194.812 146.982 207.748 134.045 207.748 118.145C207.748 116.385 206.323 114.96 204.565 114.96Z" fill="#6277D7"/>
<path d="M396.953 110.409V151.612C396.953 153.066 395.774 154.245 394.32 154.245H344.788C343.334 154.245 342.155 153.066 342.155 151.612V110.409C342.155 108.954 343.334 107.776 344.788 107.776H394.32C395.773 107.776 396.953 108.955 396.953 110.409Z" fill="#D2DCFF"/>
<path d="M396.953 110.409V118.176H342.155V110.409C342.155 108.954 343.334 107.776 344.788 107.776H394.32C395.774 107.776 396.953 108.955 396.953 110.409Z" fill="#6277D7"/>
<path d="M357.005 111.074C356.254 111.074 355.646 110.465 355.646 109.715V105.838C355.646 105.087 356.255 104.479 357.005 104.479C357.756 104.479 358.364 105.087 358.364 105.838V109.715C358.364 110.465 357.756 111.074 357.005 111.074Z" fill="#6277D7"/>
<path d="M382.102 111.074C381.351 111.074 380.743 110.465 380.743 109.715V105.838C380.743 105.087 381.352 104.479 382.102 104.479C382.853 104.479 383.461 105.087 383.461 105.838V109.715C383.461 110.465 382.853 111.074 382.102 111.074Z" fill="#6277D7"/>
<path d="M357.804 137.366L363.653 132.113C363.951 131.844 364.249 131.539 364.546 131.198C364.844 130.858 364.993 130.461 364.993 130.007C364.993 129.497 364.809 129.096 364.44 128.805C364.071 128.515 363.639 128.369 363.143 128.369C362.547 128.369 362.083 128.554 361.75 128.922C361.417 129.291 361.229 129.745 361.186 130.283L357.996 130.049C358.039 129.269 358.201 128.592 358.485 128.018C358.769 127.444 359.144 126.965 359.612 126.582C360.08 126.199 360.629 125.912 361.26 125.72C361.891 125.529 362.575 125.433 363.312 125.433C363.993 125.433 364.631 125.529 365.226 125.72C365.822 125.911 366.339 126.195 366.779 126.571C367.218 126.947 367.562 127.418 367.811 127.985C368.059 128.552 368.183 129.212 368.183 129.963C368.183 130.445 368.133 130.881 368.034 131.271C367.935 131.661 367.796 132.015 367.619 132.334C367.442 132.653 367.232 132.948 366.992 133.217C366.751 133.487 366.489 133.749 366.205 134.004L361.632 137.939H368.31V140.747H357.803V137.366H357.804Z" fill="#6277D7"/>
<path d="M375.84 135.367C375.67 135.409 375.5 135.445 375.33 135.473C375.16 135.502 374.982 135.515 374.798 135.515C374.089 135.515 373.444 135.387 372.863 135.132C372.281 134.877 371.785 134.529 371.374 134.09C370.963 133.651 370.644 133.13 370.417 132.527C370.19 131.924 370.077 131.283 370.077 130.602C370.077 129.822 370.222 129.117 370.513 128.486C370.803 127.855 371.201 127.313 371.704 126.859C372.207 126.405 372.799 126.055 373.48 125.806C374.161 125.558 374.898 125.434 375.692 125.434C376.472 125.434 377.205 125.558 377.893 125.806C378.581 126.054 379.176 126.405 379.68 126.859C380.183 127.313 380.58 127.855 380.871 128.486C381.161 129.117 381.307 129.822 381.307 130.602C381.307 131.141 381.257 131.633 381.158 132.08C381.059 132.527 380.927 132.949 380.765 133.345C380.602 133.742 380.41 134.121 380.191 134.483C379.971 134.845 379.741 135.217 379.5 135.6L376.203 140.747H372.311L375.84 135.367ZM373.266 130.731C373.266 131.411 373.489 131.975 373.936 132.422C374.383 132.869 374.968 133.092 375.691 133.092C376.414 133.092 376.999 132.869 377.446 132.422C377.893 131.975 378.116 131.412 378.116 130.731C378.116 130.05 377.893 129.487 377.446 129.04C376.999 128.593 376.414 128.37 375.691 128.37C374.968 128.37 374.383 128.593 373.936 129.04C373.489 129.486 373.266 130.05 373.266 130.731Z" fill="#6277D7"/>
<path d="M375.849 148.662H363.259C362.953 148.662 362.705 148.414 362.705 148.108C362.705 147.802 362.953 147.554 363.259 147.554H375.849C376.155 147.554 376.403 147.802 376.403 148.108C376.403 148.414 376.155 148.662 375.849 148.662Z" fill="#AEC3FF"/>
<path d="M193.203 364.531C205.079 342.788 167.59 332.564 158.552 341.188C149.514 349.813 179.476 389.663 193.203 364.531Z" fill="#FE9ECC"/>
<path d="M208.964 357.894C232.269 357.894 221.722 316.21 211.758 316.21C199.266 316.211 182.038 357.894 208.964 357.894Z" fill="#FE9ECC"/>
<path d="M226.927 373.015C246.14 388.656 263.028 353.659 256.196 343.2C249.363 332.741 204.718 354.936 226.927 373.015Z" fill="#FE9ECC"/>
<path d="M202.425 383.364C199.182 375.86 194.435 368.868 188.317 362.584C177.908 351.894 166.96 346.88 166.85 346.831C166.524 346.684 166.14 346.829 165.993 347.154C165.846 347.48 165.991 347.864 166.317 348.011C166.424 348.06 177.183 352.993 187.421 363.521C193.421 369.69 198.073 376.548 201.247 383.904C201.607 384.739 201.942 385.582 202.264 386.43H203.649C203.267 385.399 202.862 384.376 202.425 383.364Z" fill="#FF78BA"/>
<path d="M211.179 324.758C211.221 324.403 210.967 324.081 210.612 324.038C210.256 323.995 209.935 324.249 209.892 324.604C209.85 324.958 206.582 352.892 206.749 386.429H208.044C207.878 352.98 211.137 325.111 211.179 324.758Z" fill="#FF78BA"/>
<path d="M249.723 347.883C249.524 347.585 249.122 347.505 248.825 347.704C248.732 347.766 239.384 354.054 229.767 364.395C224.529 370.028 218.575 377.579 214.213 386.429H215.661C219.925 377.969 225.647 370.73 230.695 365.299C240.211 355.061 249.452 348.842 249.545 348.78C249.842 348.583 249.922 348.18 249.723 347.883Z" fill="#FF78BA"/>
<path d="M208.045 386.43H206.75H203.649H202.264H184.187C183.492 386.43 182.999 387.108 183.214 387.77L184.355 391.271L184.932 393.043L193.193 418.389C193.417 419.077 194.059 419.543 194.782 419.543H224.559C225.282 419.543 225.924 419.077 226.148 418.389L234.41 393.043L234.987 391.271L236.128 387.77C236.344 387.109 235.851 386.43 235.156 386.43H215.658H214.21H208.045Z" fill="#D2DCFF"/>
<path d="M234.989 391.27L234.412 393.042H184.933L184.356 391.27H234.989Z" fill="#AEC3FF"/>
<path d="M293.52 286.414H137.22C132.822 286.414 129.257 282.849 129.257 278.451V193.92C129.257 189.522 132.822 185.957 137.22 185.957H293.52C297.918 185.957 301.483 189.522 301.483 193.92V278.451C301.483 282.849 297.918 286.414 293.52 286.414Z" fill="#6277D7"/>
<path d="M282.269 217.195H224.939C223.996 217.195 223.232 216.431 223.232 215.488C223.232 214.545 223.996 213.781 224.939 213.781H282.269C283.212 213.781 283.976 214.545 283.976 215.488C283.976 216.43 283.212 217.195 282.269 217.195Z" fill="#D2DCFF"/>
<path d="M255.227 226.504H224.939C223.996 226.504 223.232 225.74 223.232 224.797C223.232 223.854 223.996 223.09 224.939 223.09H255.227C256.17 223.09 256.934 223.854 256.934 224.797C256.934 225.74 256.17 226.504 255.227 226.504Z" fill="#D2DCFF"/>
<path d="M244.446 260.897H224.939C223.996 260.897 223.232 260.133 223.232 259.19C223.232 258.247 223.996 257.483 224.939 257.483H244.446C245.389 257.483 246.153 258.247 246.153 259.19C246.153 260.133 245.389 260.897 244.446 260.897Z" fill="#89AEFF"/>
<path d="M165.165 244.633V258.536C165.165 259.479 164.401 260.243 163.458 260.243H156.561C155.618 260.243 154.854 259.479 154.854 258.536V244.633C154.854 243.69 155.618 242.926 156.561 242.926H163.458C164.401 242.926 165.165 243.69 165.165 244.633Z" fill="#D2DCFF"/>
<path d="M183.907 230.572V258.535C183.907 259.478 183.143 260.242 182.2 260.242H175.303C174.36 260.242 173.596 259.478 173.596 258.535V230.572C173.596 229.629 174.36 228.865 175.303 228.865H182.2C183.143 228.866 183.907 229.63 183.907 230.572Z" fill="#D2DCFF"/>
<path d="M202.65 218.902V258.536C202.65 259.479 201.886 260.243 200.943 260.243H194.046C193.103 260.243 192.339 259.479 192.339 258.536V218.902C192.339 217.959 193.103 217.195 194.046 217.195H200.943C201.886 217.195 202.65 217.959 202.65 218.902Z" fill="#D2DCFF"/>
<path d="M407.423 306.803C407.423 308.938 408.587 310.802 410.314 311.794L410.823 310.748C412.243 307.831 412.265 304.439 410.904 301.516C408.856 302.397 407.423 304.433 407.423 306.803Z" fill="#F9AFAB"/>
<path d="M345.672 254.804L347.383 251.468C346.915 248.723 346.716 245.738 346.873 242.538C346.908 241.815 346.962 241.082 347.035 240.338C350.604 240.654 361.077 241.073 368.78 236.185C368.212 240.722 369.908 245.75 372.719 249.988C373.06 249.17 374.287 246.64 376.401 246.64C380.63 246.64 381.27 253.398 378.905 256.617C380.538 257.83 382.248 258.745 383.942 259.254C383.942 259.254 383.949 259.247 383.96 259.236V278.691H367.56V270.213C365.355 271.023 363.397 271.487 362.016 271.487C357.888 271.487 351.631 265.95 348.596 256.463H346.687C346.058 256.463 345.548 255.953 345.548 255.324C345.546 255.143 345.589 254.965 345.672 254.804Z" fill="#FCBEB7"/>
<path d="M378.905 256.618C381.27 253.399 380.63 246.641 376.401 246.641C374.288 246.641 373.061 249.171 372.719 249.989C369.908 245.75 368.212 240.723 368.78 236.186C361.076 241.074 350.604 240.655 347.035 240.339C346.962 241.083 346.908 241.817 346.873 242.539C346.564 242.246 345.839 241.431 345.787 240.203C345.785 240.203 345.784 240.203 345.784 240.203C345.784 240.168 345.784 240.133 345.785 240.099C345.785 240.088 345.784 240.078 345.784 240.067C345.784 240.061 345.785 240.054 345.785 240.048C345.879 233.044 352.291 221.151 367.937 221.151C384.516 221.151 387.617 231.945 387.617 231.945C387.617 231.945 393.324 235.071 393.324 241.375C393.324 249.658 384.394 258.799 383.96 259.239C383.949 259.25 383.942 259.257 383.942 259.257C382.248 258.746 380.538 257.831 378.905 256.618Z" fill="#311643"/>
<path d="M367.56 278.692V270.214C372.113 268.542 377.719 265.397 381.474 261.824L367.56 278.692Z" fill="#F9AFAB"/>
<path d="M364.848 258.484C367.304 258.484 369.294 256.493 369.294 254.038C369.294 251.582 367.304 249.592 364.848 249.592C362.393 249.592 360.402 251.582 360.402 254.038C360.402 256.493 362.393 258.484 364.848 258.484Z" fill="#F49795"/>
<path d="M355.343 260.912C356.237 260.912 356.848 260.573 357.219 260.265C357.681 259.882 357.875 259.468 357.896 259.422C357.989 259.216 357.897 258.974 357.691 258.88C357.486 258.787 357.244 258.878 357.151 259.083C357.126 259.137 356.577 260.254 355.003 260.072C354.778 260.046 354.575 260.207 354.549 260.432C354.523 260.657 354.684 260.86 354.909 260.886C355.06 260.904 355.205 260.912 355.343 260.912Z" fill="#311643"/>
<path d="M352.834 248.592C353.327 248.592 353.727 248.192 353.727 247.699V246.03C353.727 245.537 353.327 245.137 352.834 245.137C352.341 245.137 351.941 245.537 351.941 246.03V247.699C351.941 248.192 352.341 248.592 352.834 248.592Z" fill="#311643"/>
<path d="M346.81 246.455H349.567V241.372C349.567 241.146 349.75 240.963 349.976 240.963C350.202 240.963 350.385 241.146 350.385 241.372V252.358C350.385 252.584 350.202 252.767 349.976 252.767C349.75 252.767 349.567 252.584 349.567 252.358V247.274H346.81C346.584 247.274 346.401 247.091 346.401 246.865C346.401 246.639 346.584 246.455 346.81 246.455Z" fill="white"/>
<path d="M319.703 312.226L365.85 330.201L379.475 348.337C381.575 351.132 384.539 353.099 387.854 353.974L367.664 367.876L329.029 347.548L330.62 396.907H313.288L298.802 330.061C296.168 317.909 308.118 307.714 319.703 312.226Z" fill="#6277D7"/>
<path d="M330.62 403.875V416.121C330.62 417.549 329.462 418.706 328.034 418.706H293.3C292.97 418.706 292.702 418.438 292.702 418.108V415.851C292.702 414.762 293.337 413.772 294.327 413.319L314.954 403.874H330.62V403.875Z" fill="#2F3D6C"/>
<path d="M330.62 396.907V403.875H314.954L313.288 396.907H330.62Z" fill="#FCBEB7"/>
<path d="M346.368 356.671L367.664 367.876L383.548 356.671H346.368Z" fill="#4A5EA3"/>
<path d="M299.228 321.803C300.545 322.683 302.128 323.196 303.83 323.196C308.411 323.196 312.124 319.482 312.124 314.901C312.124 313.639 311.842 312.442 311.338 311.372C305.752 312.365 301.039 316.419 299.228 321.803Z" fill="#4A5EA3"/>
<path d="M405.142 290.681L410.643 300.991C412.263 304.027 412.33 307.655 410.823 310.748L410.35 311.719L406.073 293.988C405.804 292.87 405.493 291.768 405.142 290.681Z" fill="#FCBEB7"/>
<path d="M387.854 353.974C387.746 353.945 387.638 353.916 387.531 353.885C384.347 352.97 381.507 351.041 379.475 348.337L365.85 330.201L366.92 293.329L353.187 296.32L347.741 279.134L383.951 264.852C394.064 270.491 401.614 279.742 405.142 290.681C405.492 291.767 405.804 292.87 406.073 293.988L410.35 311.719L420.84 355.208L391.402 354.48C390.191 354.45 389.002 354.277 387.854 353.974Z" fill="#89AEFF"/>
<path d="M366.733 299.752L384.711 288.436L366.92 293.336L366.733 299.752Z" fill="#4A62D3"/>
<path d="M415.473 402.624L421.935 396.319C423.196 395.088 425.159 394.94 426.591 395.966L454.288 415.823C454.644 416.078 454.725 416.573 454.47 416.929L453.254 418.626C452.611 419.523 451.568 420.046 450.464 420.025L439.342 419.81L415.473 402.624Z" fill="#2F3D6C"/>
<path d="M415.473 419.809H439.342L415.473 402.624V419.809Z" fill="#FCBEB7"/>
<path d="M336.748 389.413L387.531 353.885C387.638 353.916 387.746 353.946 387.854 353.974C389.002 354.277 390.191 354.45 391.402 354.48L420.84 355.208C420.84 367.864 413.239 379.281 401.564 384.163L371.667 396.665L415.473 402.623V419.808H346.326C329.988 419.809 323.362 398.778 336.748 389.413Z" fill="#6277D7"/>
<path d="M334.215 414.694C336.56 413.229 338.12 410.625 338.12 407.655C338.12 403.124 334.486 399.441 329.974 399.362C328.775 404.802 330.422 410.651 334.215 414.694Z" fill="#4A5EA3"/>
<path d="M273.955 241.707L284.389 238.241C285.008 238.035 285.684 238.093 286.259 238.399L292.711 241.837L294.171 242.155C294.716 242.274 295.166 242.655 295.373 243.172L297.912 249.526L341.174 281.492L347.741 279.135L353.187 296.321L340.491 298.943C337.542 299.552 334.485 298.631 332.363 296.495L291.75 255.603L284.293 251.219C283.606 250.815 283.172 250.088 283.142 249.292L283.112 248.501L282.629 248.035C282.12 247.545 281.861 246.85 281.923 246.147L281.981 245.491C281.438 244.961 281.187 244.2 281.306 243.451L281.411 242.79L274.377 243.613C273.936 243.665 273.516 243.414 273.352 243.001C273.144 242.476 273.419 241.884 273.955 241.707Z" fill="#FCBEB7"/>
<path d="M331.636 295.762L332.364 296.494C334.486 298.631 337.543 299.551 340.492 298.942L341.087 298.82V298.819C340.743 296.116 338.436 294.027 335.64 294.027C334.061 294.026 332.637 294.694 331.636 295.762Z" fill="#F9AFAB"/>
<path d="M78.6202 115.708C78.6202 104.965 69.1452 96.26 54.9372 96.26C43.1292 96.26 39.0712 102.776 39.0712 102.776C39.0712 102.776 27.9102 105.188 27.9102 119.057C27.9102 131.95 27.9102 154.13 27.9102 154.13H46.2502H47.1852H60.7292H75.4522V125.246C76.6152 123.818 78.6202 120.641 78.6202 115.708ZM56.5672 147.117C55.5742 147.117 54.4902 146.934 53.3592 146.615V154.13H37.1322V134.796C37.0212 134.486 36.9122 134.154 36.8062 133.805C29.6122 133.118 29.9102 121.229 34.1852 121.229C34.2432 121.229 34.3002 121.234 34.3562 121.242V121.241C52.3262 126.986 64.4112 117.573 68.3652 111.033C68.3652 115.597 73.4162 120.047 75.2132 120.453C74.9462 136.763 63.2782 147.117 56.5672 147.117Z" fill="#311643"/>
<path d="M53.3589 148.382V146.614C54.4899 146.933 55.5739 147.116 56.5669 147.116C63.2789 147.116 74.9469 136.762 75.2119 120.451C73.4149 120.045 68.3639 115.595 68.3639 111.031C64.4099 117.572 52.3249 126.984 34.3549 121.239V121.24C34.2989 121.232 34.2429 121.227 34.1839 121.227C29.9089 121.227 29.6109 133.116 36.8049 133.803C36.9109 134.152 37.0199 134.484 37.1309 134.794V147.8L24.4219 153.79V169.476H66.6549V152.376L53.3589 148.382Z" fill="#FCBEB7"/>
<path d="M66.6545 169.478V152.378L53.3585 148.382V146.614C49.5985 145.553 45.3245 142.983 42.1855 140.585L66.6545 169.478Z" fill="#F9AFAB"/>
<path d="M44.6916 134.223C47.1366 134.223 49.1186 132.241 49.1186 129.796C49.1186 127.351 47.1366 125.369 44.6916 125.369C42.2467 125.369 40.2646 127.351 40.2646 129.796C40.2646 132.241 42.2467 134.223 44.6916 134.223Z" fill="#F49795"/>
<path d="M74.642 126.12C74.081 129.093 73.14 131.803 71.952 134.216C69.611 134.1 67.749 132.165 67.749 129.795C67.749 127.35 69.731 125.368 72.175 125.368C73.088 125.369 73.937 125.646 74.642 126.12Z" fill="#F49795"/>
<path d="M67.1543 116.332C63.9223 116.332 61.2533 118.789 60.9173 121.934C59.1603 121.107 57.6092 121.555 56.7902 121.931C56.4522 118.788 53.7852 116.332 50.5542 116.332C47.0952 116.332 44.2812 119.146 44.2812 122.605C44.2812 126.064 47.0952 128.878 50.5542 128.878C53.9362 128.878 56.6993 126.188 56.8213 122.835C57.3423 122.535 58.9973 121.771 60.8863 122.842C61.0113 126.191 63.7743 128.878 67.1533 128.878C70.6123 128.878 73.4262 126.064 73.4262 122.605C73.4272 119.146 70.6133 116.332 67.1543 116.332ZM50.5542 128.058C47.5482 128.058 45.1022 125.612 45.1022 122.606C45.1022 119.599 47.5482 117.153 50.5542 117.153C53.5612 117.153 56.0073 119.599 56.0073 122.606C56.0063 125.612 53.5602 128.058 50.5542 128.058ZM67.1543 128.058C64.1483 128.058 61.7022 125.612 61.7022 122.606C61.7022 119.599 64.1483 117.153 67.1543 117.153C70.1613 117.153 72.6072 119.599 72.6072 122.606C72.6062 125.612 70.1603 128.058 67.1543 128.058Z" fill="white"/>
<path d="M67.1587 124.337C66.6647 124.337 66.2637 123.936 66.2637 123.442V121.77C66.2637 121.275 66.6647 120.874 67.1587 120.874C67.6527 120.874 68.0537 121.275 68.0537 121.77V123.442C68.0537 123.936 67.6527 124.337 67.1587 124.337Z" fill="#311643"/>
<path d="M50.8266 124.337C50.3326 124.337 49.9316 123.936 49.9316 123.442V121.77C49.9316 121.275 50.3326 120.874 50.8266 120.874C51.3206 120.874 51.7216 121.275 51.7216 121.77V123.442C51.7216 123.936 51.3206 124.337 50.8266 124.337Z" fill="#311643"/>
<path d="M57.2178 137.25C55.6198 137.25 54.5318 136.649 53.8728 136.102C53.0418 135.412 52.6968 134.659 52.6818 134.627C52.5888 134.42 52.6808 134.178 52.8878 134.085C53.0938 133.992 53.3368 134.084 53.4298 134.289C53.4768 134.391 54.6118 136.77 57.9088 136.389C58.1348 136.363 58.3378 136.524 58.3638 136.749C58.3898 136.974 58.2288 137.178 58.0028 137.204C57.7288 137.235 57.4668 137.25 57.2178 137.25Z" fill="#311643"/>
<path d="M83.9795 397.666L85.6585 404.644L103.969 410.395L101.336 397.666H83.9795Z" fill="#FCBEB7"/>
<path d="M22.2846 397.666L22.7846 406.286L21.6436 406.707L20.8916 410.398L39.1846 404.644L39.6416 397.666H22.2846Z" fill="#FCBEB7"/>
<path d="M118.092 413.105L103.206 406.706L103.969 410.395L85.6582 404.645V409.892C85.6582 411.737 86.6232 413.409 88.1402 414.35L89.7152 418.852C89.8512 419.241 90.2182 419.502 90.6312 419.502C91.1672 419.502 91.6012 419.068 91.6012 418.532V415.604L104.116 419.503H116.776C118.617 419.503 120.109 418.011 120.109 416.17C120.108 414.836 119.315 413.631 118.092 413.105Z" fill="#2F3D6C"/>
<path d="M39.2015 409.841L39.1865 404.594L20.8925 410.399L21.6445 406.708L6.77755 413.151C5.55555 413.681 4.76555 414.887 4.76955 416.219C4.77455 418.06 6.27155 419.548 8.11255 419.542L20.7725 419.505L33.7135 415.432L33.7225 418.498C33.7245 419.034 34.1595 419.467 34.6955 419.465C35.1075 419.464 35.4745 419.202 35.6095 418.813L37.3175 413.883C38.4895 412.903 39.2055 411.436 39.2015 409.841Z" fill="#2F3D6C"/>
<path d="M25.0533 222.146L18.2993 250.747C16.3493 259.007 15.5803 267.501 16.0173 275.976L22.2853 397.665H39.6423L47.0533 271.374L83.9793 397.665H101.336L70.7754 222.145H25.0533V222.146Z" fill="#6277D7"/>
<path d="M48.0193 161.742C51.1013 161.742 53.5663 158.774 55.2283 155.768H37.6533C40.3333 158.766 44.0043 161.742 48.0193 161.742Z" fill="white"/>
<path d="M80.9051 161.972C78.1961 157.755 74.0761 154.638 69.2811 153.178L57.6331 149.631C57.6331 150.121 56.7811 152.961 55.2291 155.768C53.5671 158.774 51.1021 161.742 48.0201 161.742C44.0051 161.742 40.3341 158.766 37.6531 155.768C34.9331 152.726 33.2341 149.662 33.2341 149.662L21.1331 155.269C16.1801 157.564 12.5331 161.979 11.2161 167.277L2.28809 203.179L18.7051 203.183L22.7341 189.242L25.0541 222.147H70.7761L74.9301 187.124L85.8211 196.92L94.8561 183.686L80.9051 161.972Z" fill="#FE9ECC"/>
<path d="M146.801 148.382L146.105 148.266L145.996 147.84C145.791 147.038 145.095 146.458 144.269 146.402L134.508 145.743L127.718 142.982L131.509 138.251C132.137 137.467 132.049 136.331 131.308 135.653L123.311 141.815C122.526 142.419 121.875 143.18 121.399 144.048L119.201 148.053L119.191 148.04L85.8203 196.921L90.4053 201.11C94.1953 204.573 100.246 203.447 102.538 198.853L124.218 155.392L132.119 156.144C133.896 156.313 135.689 156.134 137.398 155.618L141.58 154.354C142.29 154.139 142.661 153.359 142.378 152.673L145.357 152.1C145.913 151.993 146.334 151.535 146.394 150.971L146.445 150.489H146.628C147.213 150.489 147.688 150.014 147.688 149.429C147.687 148.909 147.312 148.467 146.801 148.382Z" fill="#FCBEB7"/>
<path d="M94.855 183.686L82.168 193.635L85.82 196.92L94.855 183.686Z" fill="#FF78BA"/>
<path d="M48.4716 166.018C45.9296 166.018 43.3436 165.245 40.7836 163.719C38.7516 162.508 36.7316 160.823 34.7796 158.709C31.4666 155.123 29.4536 151.459 29.4336 151.422L30.1066 151.11C30.1266 151.145 32.0836 154.694 35.3376 158.214C37.2396 160.271 39.2026 161.909 41.1716 163.081C43.6116 164.534 46.0676 165.27 48.4706 165.27C50.7416 165.27 52.7866 164.511 54.5496 163.015C55.9756 161.804 57.2256 160.11 58.2646 157.98C60.0466 154.325 60.5946 150.57 60.6006 150.533L61.3236 150.753C61.3016 150.909 60.7686 154.547 58.9356 158.307C57.8516 160.531 56.5386 162.306 55.0336 163.584C53.1316 165.199 50.9246 166.018 48.4716 166.018Z" fill="white"/>
<path d="M75.7162 319.256C80.3046 319.256 84.0242 315.536 84.0242 310.948C84.0242 306.36 80.3046 302.64 75.7162 302.64C71.1278 302.64 67.4082 306.36 67.4082 310.948C67.4082 315.536 71.1278 319.256 75.7162 319.256Z" fill="#4A5EA3"/>
<path d="M32.1889 319.256C36.7772 319.256 40.4969 315.536 40.4969 310.948C40.4969 306.36 36.7772 302.64 32.1889 302.64C27.6005 302.64 23.8809 306.36 23.8809 310.948C23.8809 315.536 27.6005 319.256 32.1889 319.256Z" fill="#4A5EA3"/>
<path d="M79.7797 160.384C78.9427 160.936 77.9397 161.257 76.8617 161.257C73.9317 161.257 71.5547 158.882 71.5547 155.951C71.5547 155.32 71.6647 154.715 71.8677 154.154C74.9637 155.561 77.6807 157.697 79.7797 160.384Z" fill="#FF78BA"/>
<path d="M21.2039 158.961C21.2039 161.891 18.8289 164.268 15.8969 164.268C14.7199 164.268 13.6329 163.885 12.7529 163.236C14.4069 160.09 16.9679 157.48 20.1359 155.768C20.8069 156.657 21.2039 157.763 21.2039 158.961Z" fill="#FF78BA"/>
<path d="M37.903 232.129L76.012 230.69C76.698 230.664 77.232 230.087 77.207 229.402L75.168 175.422C75.142 174.736 74.565 174.202 73.88 174.227L35.771 175.666C35.085 175.692 34.551 176.269 34.576 176.954L36.615 230.934C36.641 231.62 37.217 232.155 37.903 232.129Z" fill="#4A5EA3"/>
<path d="M37.783 229.218L75.699 233.313C76.381 233.387 76.994 232.893 77.068 232.211L82.868 178.505C82.942 177.823 82.448 177.21 81.766 177.136L43.85 173.041C43.168 172.967 42.555 173.461 42.481 174.143L36.681 227.849C36.608 228.532 37.101 229.145 37.783 229.218Z" fill="#4A5EA3"/>
<path d="M82.8913 207.755C82.8613 207.033 82.5403 206.353 82.0013 205.871L81.2893 205.234L81.2563 204.897C81.1303 203.625 80.0913 202.638 78.8153 202.575L74.2073 202.349L76.6353 198.6C76.7983 198.349 76.8483 198.041 76.7743 197.751C76.5933 197.047 75.7793 196.723 75.1643 197.111L62.0413 205.391L18.7053 203.182L2.28727 203.178L0.309272 210.176C-1.23573 215.641 3.22427 220.94 8.87227 220.351L62.0413 214.813L77.1603 217.137L77.8333 216.955C78.9923 216.642 79.8013 215.595 79.8123 214.394L79.8213 213.46L79.8473 213.448C80.8383 213.005 81.4633 212.007 81.4303 210.922L81.4133 210.373L81.9693 209.891C82.5863 209.357 82.9253 208.57 82.8913 207.755Z" fill="#FCBEB7"/>
<path d="M10.2186 215.706C10.2186 217.683 9.17565 219.416 7.60965 220.386C3.48365 220.179 0.251648 216.838 0.0146484 212.855C0.978648 211.267 2.72465 210.207 4.71865 210.207C7.75665 210.206 10.2186 212.668 10.2186 215.706Z" fill="#F9AFAB"/>
<path d="M101.494 200.433C98.8399 203.547 94.0599 204.096 90.7549 201.409C91.0519 198.652 93.3869 196.505 96.2219 196.505C98.7139 196.505 100.818 198.162 101.494 200.433Z" fill="#F9AFAB"/>
<path d="M39.8623 232.055C39.8623 232.055 73.7163 239.04 73.7103 239.006C73.7043 238.972 72.6623 232.985 72.6623 232.985L57.7803 231.378L39.8623 232.055Z" fill="#4A5EA3"/>
<path d="M39.1201 175.539L39.2331 204.228L42.3441 175.418L39.1201 175.539Z" fill="#2F3D6C"/>
</svg>
