<svg width="584" height="433" viewBox="0 0 584 433" fill="none" xmlns="http://www.w3.org/2000/svg">
<path d="M474.026 195.635H288.41C283.188 195.635 278.954 191.401 278.954 186.178V9.45668C278.954 4.2338 283.188 0 288.41 0H474.026C479.249 0 483.482 4.2338 483.482 9.45668V186.178C483.482 191.402 479.249 195.635 474.026 195.635Z" fill="#6277D7"/>
<path d="M395.327 28.319H307.256C305.689 28.319 304.418 27.0482 304.418 25.4806C304.418 23.913 305.689 22.6425 307.256 22.6425H395.327C396.894 22.6425 398.165 23.913 398.165 25.4806C398.165 27.0482 396.894 28.319 395.327 28.319Z" fill="#E1E9FF"/>
<path d="M367.014 42.4793H307.256C305.689 42.4793 304.418 41.2087 304.418 39.6412C304.418 38.0736 305.689 36.8027 307.256 36.8027H367.014C368.582 36.8027 369.852 38.0736 369.852 39.6412C369.852 41.2087 368.582 42.4793 367.014 42.4793Z" fill="#E1E9FF"/>
<path d="M322.184 65.6793H306.445C305.325 65.6793 304.418 64.7719 304.418 63.6521C304.418 62.5322 305.325 61.6249 306.445 61.6249H322.184C323.304 61.6249 324.211 62.5322 324.211 63.6521C324.211 64.7719 323.304 65.6793 322.184 65.6793Z" fill="#89AEFF"/>
<path d="M329.032 130.839V181.428C329.032 182.547 328.125 183.455 327.005 183.455H318.814C317.694 183.455 316.787 182.547 316.787 181.428V130.839C316.787 129.719 317.694 128.812 318.814 128.812H327.005C328.125 128.812 329.032 129.72 329.032 130.839Z" fill="#89AEFF"/>
<path d="M351.291 110.515V181.428C351.291 182.548 350.384 183.455 349.264 183.455H341.073C339.953 183.455 339.046 182.548 339.046 181.428V110.515C339.046 109.395 339.953 108.488 341.073 108.488H349.264C350.384 108.488 351.291 109.395 351.291 110.515Z" fill="#89AEFF"/>
<path d="M378.097 130.839V181.428C378.097 182.547 377.189 183.455 376.069 183.455H367.879C366.759 183.455 365.852 182.547 365.852 181.428V130.839C365.852 129.719 366.759 128.812 367.879 128.812H376.069C377.189 128.812 378.097 129.72 378.097 130.839Z" fill="#89AEFF"/>
<path d="M400.352 110.515V181.428C400.352 182.548 399.445 183.455 398.325 183.455H390.135C389.015 183.455 388.107 182.548 388.107 181.428V110.515C388.107 109.395 389.015 108.488 390.135 108.488H398.325C399.445 108.488 400.352 109.395 400.352 110.515Z" fill="#89AEFF"/>
<path d="M427.159 145.654V181.429C427.159 182.549 426.252 183.457 425.132 183.457H416.941C415.821 183.457 414.914 182.549 414.914 181.429V145.654C414.914 144.534 415.821 143.627 416.941 143.627H425.132C426.252 143.627 427.159 144.534 427.159 145.654Z" fill="#89AEFF"/>
<path d="M449.417 130.839V181.428C449.417 182.547 448.509 183.455 447.39 183.455H439.199C438.079 183.455 437.172 182.547 437.172 181.428V130.839C437.172 129.719 438.079 128.812 439.199 128.812H447.39C448.509 128.812 449.417 129.72 449.417 130.839Z" fill="#89AEFF"/>
<path d="M329.032 149.525V181.429C329.032 182.549 328.125 183.457 327.005 183.457H318.814C317.694 183.457 316.787 182.549 316.787 181.429V149.525C316.787 148.405 317.694 147.497 318.814 147.497H327.005C328.125 147.497 329.032 148.405 329.032 149.525Z" fill="#D2DCFF"/>
<path d="M351.291 136.15V181.43C351.291 182.55 350.384 183.457 349.264 183.457H341.073C339.953 183.457 339.046 182.55 339.046 181.43V136.15C339.046 135.03 339.953 134.123 341.073 134.123H349.264C350.384 134.123 351.291 135.03 351.291 136.15Z" fill="#D2DCFF"/>
<path d="M378.097 149.525V181.429C378.097 182.549 377.189 183.457 376.069 183.457H367.879C366.759 183.457 365.852 182.549 365.852 181.429V149.525C365.852 148.405 366.759 147.497 367.879 147.497H376.069C377.189 147.497 378.097 148.405 378.097 149.525Z" fill="#D2DCFF"/>
<path d="M400.352 136.15V181.43C400.352 182.55 399.445 183.457 398.325 183.457H390.135C389.015 183.457 388.107 182.55 388.107 181.43V136.15C388.107 135.03 389.015 134.123 390.135 134.123H398.325C399.445 134.123 400.352 135.03 400.352 136.15Z" fill="#D2DCFF"/>
<path d="M427.159 159.273V181.428C427.159 182.548 426.252 183.455 425.132 183.455H416.941C415.821 183.455 414.914 182.548 414.914 181.428V159.273C414.914 158.153 415.821 157.246 416.941 157.246H425.132C426.252 157.246 427.159 158.153 427.159 159.273Z" fill="#D2DCFF"/>
<path d="M449.417 149.525V181.428C449.417 182.548 448.509 183.455 447.39 183.455H439.199C438.079 183.455 437.172 182.548 437.172 181.428V149.525C437.172 148.405 438.079 147.497 439.199 147.497H447.39C448.508 147.497 449.417 148.405 449.417 149.525Z" fill="#D2DCFF"/>
<path d="M431.628 332.149L443.793 433H447.782L435.618 332.149H431.628Z" fill="#D2DCFF"/>
<path d="M485.386 332.148L486.754 343.49L497.55 432.999H501.54L490.69 343.046L489.376 332.148H485.386Z" fill="#D2DCFF"/>
<path d="M431.628 432.999H435.618L437.3 419.051L439.295 402.513L445.856 348.115L447.782 332.148H443.792L441.811 348.571L437.3 385.973L435.306 402.511L431.628 432.999Z" fill="#D2DCFF"/>
<path d="M377.871 432.999H381.861L391.302 354.721H391.304L394.025 332.148H390.035L387.26 355.157L377.871 432.999Z" fill="#D2DCFF"/>
<path d="M489.182 264.732H485.191V325.736H489.182V264.732Z" fill="#D2DCFF"/>
<path d="M434.967 264.732H430.978V325.737H434.967V264.732Z" fill="#D2DCFF"/>
<path d="M388.361 325.737H443.177C441.406 325.737 439.971 327.171 439.971 328.942C439.971 330.712 441.406 332.148 443.177 332.148H388.361C386.59 332.148 385.154 330.712 385.154 328.942C385.154 327.171 386.59 325.737 388.361 325.737Z" fill="#D2DCFF"/>
<path d="M439.971 328.942C439.971 327.171 441.406 325.737 443.177 325.737H485.106H490.507C492.278 325.737 493.714 327.171 493.714 328.942C493.714 330.712 492.278 332.148 490.507 332.148H485.106H443.177C441.406 332.148 439.971 330.712 439.971 328.942Z" fill="#86A2E2"/>
<path d="M427.718 218.822H492.441C494.909 218.822 496.91 220.823 496.91 223.289V260.263C496.91 262.73 494.909 264.732 492.441 264.732H427.718C425.25 264.732 423.249 262.73 423.249 260.263V223.289C423.249 220.822 425.249 218.822 427.718 218.822Z" fill="#D2DCFF"/>
<path d="M485.386 332.148L486.754 343.49C488.195 343.327 489.512 343.179 490.689 343.047L489.375 332.148H485.386Z" fill="#AEC3FF"/>
<path d="M443.792 332.148L441.812 348.572C443.167 348.42 444.516 348.267 445.856 348.116L447.783 332.148H443.792Z" fill="#AEC3FF"/>
<path d="M387.26 355.157C388.547 355.019 389.897 354.874 391.302 354.721H391.303L394.025 332.148H390.035L387.26 355.157Z" fill="#AEC3FF"/>
<path d="M489.181 264.732H485.19V273.157L489.181 272.716V264.732Z" fill="#AEC3FF"/>
<path d="M430.978 264.732V279.158L434.967 278.716V264.732H430.978Z" fill="#AEC3FF"/>
<path d="M409.374 169.301C410.855 187.27 423.91 198.535 431.569 198.535C432.719 198.535 433.97 198.33 435.277 197.971V206.933H454.708V184.147C454.887 183.675 455.061 183.153 455.232 182.596C463.847 181.773 463.49 167.536 458.371 167.536C457.44 167.536 456.818 168.416 456.426 169.302L455.155 170.573V164.141C455.155 164.141 452.297 164.41 446.668 155.833C444.239 159.517 424.869 165.303 409.325 162.711C409.324 162.711 409.285 165.911 409.374 169.301Z" fill="#FCBEB7"/>
<path d="M432.91 138.322C446.31 138.322 448.991 145.469 448.991 145.469C454.709 145.469 463.463 155.922 458.192 167.535L458.165 167.562L455.154 170.573V164.141C455.154 164.141 452.296 164.409 446.667 155.833C444.238 159.517 424.868 165.303 409.324 162.711C409.324 162.711 409.283 165.91 409.372 169.301C409.372 169.304 409.372 169.308 409.372 169.312C403.566 152.516 415.221 138.322 432.91 138.322Z" fill="#311643"/>
<path d="M438.671 174.207C439.264 174.207 439.743 173.727 439.743 173.134V171.132C439.743 170.54 439.264 170.06 438.671 170.06C438.078 170.06 437.599 170.54 437.599 171.132V173.134C437.599 173.727 438.078 174.207 438.671 174.207Z" fill="#311643"/>
<path d="M418.794 174.207C419.387 174.207 419.866 173.727 419.866 173.134V171.132C419.866 170.54 419.387 170.06 418.794 170.06C418.201 170.06 417.722 170.54 417.722 171.132V173.134C417.722 173.727 418.201 174.207 418.794 174.207Z" fill="#311643"/>
<path d="M430.788 186.72C432.701 186.72 434.004 186 434.794 185.345C435.789 184.518 436.202 183.617 436.22 183.579C436.332 183.332 436.221 183.041 435.974 182.93C435.727 182.818 435.437 182.928 435.325 183.174C435.269 183.295 433.91 186.145 429.962 185.688C429.692 185.659 429.449 185.85 429.417 186.121C429.384 186.391 429.578 186.634 429.849 186.664C430.178 186.702 430.49 186.72 430.788 186.72Z" fill="#311643"/>
<path d="M445.789 183.096C448.716 183.096 451.09 180.722 451.09 177.795C451.09 174.867 448.716 172.493 445.789 172.493C442.861 172.493 440.487 174.867 440.487 177.795C440.487 180.722 442.861 183.096 445.789 183.096Z" fill="#F49795"/>
<path d="M409.924 173.393C410.596 176.954 411.722 180.199 413.146 183.089C415.95 182.95 418.179 180.633 418.179 177.795C418.179 174.867 415.806 172.494 412.879 172.494C411.785 172.493 410.768 172.826 409.924 173.393Z" fill="#F49795"/>
<path d="M411.282 169.185C411.282 173.327 414.652 176.696 418.793 176.696C422.841 176.696 426.148 173.479 426.298 169.469C428.544 168.197 430.544 169.11 431.165 169.463C431.313 173.477 434.621 176.696 438.67 176.696C442.812 176.696 446.181 173.327 446.181 169.185C446.181 165.043 442.811 161.674 438.67 161.674C434.801 161.674 431.606 164.614 431.202 168.377C430.222 167.927 428.365 167.39 426.261 168.381C425.858 164.615 422.663 161.674 418.792 161.674C414.652 161.674 411.282 165.043 411.282 169.185ZM432.143 169.185C432.143 165.584 435.071 162.656 438.672 162.656C442.273 162.656 445.201 165.584 445.201 169.185C445.201 172.784 442.273 175.714 438.672 175.714C435.071 175.714 432.143 172.785 432.143 169.185ZM412.266 169.185C412.266 165.584 415.194 162.656 418.795 162.656C422.395 162.656 425.324 165.584 425.324 169.185C425.324 172.784 422.395 175.714 418.795 175.714C415.194 175.714 412.266 172.785 412.266 169.185Z" fill="white"/>
<path d="M435.276 206.934V197.971C439.67 196.764 444.672 193.805 448.432 190.985L435.276 206.934Z" fill="#F9AFAB"/>
<path d="M380.068 360.14L384.125 359.584L387.967 327.732H383.977L380.068 360.14Z" fill="#EBEDF4"/>
<path d="M390.844 238.416L387.32 245.171H406.1L390.844 238.416Z" fill="#FCBEB7"/>
<path d="M426.814 415.387V429.93C426.814 431.625 425.439 432.999 423.743 432.999H382.494C382.102 432.999 381.784 432.681 381.784 432.289V429.609C381.784 428.316 382.538 427.14 383.714 426.602L407.565 415.385H426.814V415.387Z" fill="#2F3D6C"/>
<path d="M426.814 407.113L426.805 415.387H407.566L406.236 407.113H426.814Z" fill="#FCBEB7"/>
<path d="M435.31 198.48L409.192 210.277C405.601 211.9 402.679 214.71 400.919 218.236L390.845 238.415L406.101 245.17L404.838 289.775H480.865L477.546 248.117L491.295 248.206V225.413C491.295 218.353 487.053 211.985 480.538 209.264L454.708 198.479C454.707 198.48 443.421 205.886 435.31 198.48Z" fill="#89AEFF"/>
<path d="M429.059 201.194C433.182 204.649 438.336 206.53 443.778 206.53C449.508 206.53 455.157 204.243 459.38 200.433L458.549 200.086C454.507 203.632 449.204 205.744 443.777 205.744C438.654 205.744 433.796 204.018 429.867 200.843L429.059 201.194Z" fill="white"/>
<path d="M386.336 415.387V429.93C386.336 431.625 384.96 432.999 383.264 432.999H342.016C341.623 432.999 341.306 432.681 341.306 432.289V429.609C341.306 428.316 342.06 427.14 343.235 426.602L367.086 415.385H386.336V415.387Z" fill="#2F3D6C"/>
<path d="M386.335 407.113L386.324 415.387H367.087L365.756 407.113H386.335Z" fill="#FCBEB7"/>
<path d="M440.387 289.776V290.553C440.403 310.089 424.569 325.935 405.031 325.935H388.607L386.336 407.11H365.756L350.583 310.322C348.891 299.528 357.236 289.775 368.16 289.775H440.387V289.776Z" fill="#6277D7"/>
<path d="M350.365 307.61C352.137 310.202 355.119 311.904 358.498 311.904C363.938 311.904 368.347 307.495 368.347 302.055C368.347 296.831 364.28 292.556 359.14 292.226C353.832 295.356 350.337 301.15 350.365 307.61Z" fill="#4A5EA3"/>
<path d="M390.847 307.231L388.607 325.936H402.084L390.847 307.231Z" fill="#4A5EA3"/>
<path d="M480.867 289.776V290.553C480.882 310.089 465.048 325.935 445.511 325.935H429.087L426.815 407.11H406.236L391.062 310.322C389.37 299.528 397.715 289.775 408.639 289.775H480.867V289.776Z" fill="#6277D7"/>
<path d="M491.294 248.207L490.563 273.47C490.364 280.297 484.773 285.73 477.942 285.73H433.966L431.014 275.445L469.804 269.051L470.078 248.069L491.294 248.207Z" fill="#FCBEB7"/>
<path d="M478.253 280.477C478.253 282.473 479.151 284.261 480.565 285.457C485.111 284.496 488.764 281.089 490.06 276.658C488.876 275.021 486.95 273.955 484.774 273.955C481.172 273.954 478.253 276.875 478.253 280.477Z" fill="#F9AFAB"/>
<path d="M470.078 248.07L464.123 269.988L469.803 269.051L470.078 248.07Z" fill="#4A62D3"/>
<path d="M436.432 274.552L443.365 285.73H433.966L431.014 275.445L436.432 274.552Z" fill="#F9AFAB"/>
<path d="M360.864 245.172H418.207C420.643 245.172 422.786 246.785 423.458 249.127L433.965 285.729H457.218C458.335 285.729 459.241 286.635 459.241 287.753C459.241 288.87 458.335 289.776 457.218 289.776H435.127H428.102H366.416L355.613 252.142C354.611 248.651 357.232 245.172 360.864 245.172Z" fill="#4A5EA3"/>
<path d="M390.847 307.231C392.582 310.036 395.686 311.904 399.227 311.904C404.667 311.904 409.077 307.495 409.077 302.054C409.077 296.753 404.89 292.429 399.641 292.213C394.425 295.279 390.954 300.914 390.847 307.231Z" fill="#4A5EA3"/>
<path d="M392.813 272.124C393.984 272.021 394.811 270.552 394.661 268.843C394.51 267.133 393.439 265.831 392.268 265.934C391.098 266.037 390.27 267.506 390.421 269.215C390.571 270.925 391.642 272.227 392.813 272.124Z" fill="#89AEFF"/>
<path d="M479.76 218.542C479.76 221.727 482.343 224.309 485.528 224.309C487.826 224.309 489.808 222.966 490.735 221.023C489.92 217.875 488.243 215.024 485.913 212.788C485.785 212.778 485.657 212.775 485.528 212.775C482.342 212.775 479.76 215.356 479.76 218.542Z" fill="#4A62D3"/>
<path d="M401.273 217.562C402.193 218.181 403.299 218.542 404.491 218.542C407.676 218.542 410.257 215.959 410.257 212.775C410.257 211.807 410.02 210.895 409.598 210.095L409.191 210.279C405.832 211.795 403.06 214.352 401.273 217.562Z" fill="#4A62D3"/>
<path d="M284.446 269.574L264.317 432.322H260.319L280.448 269.574H284.446Z" fill="#D2DCFF"/>
<path d="M197.961 331.304L185.775 432.321H181.78L193.963 331.304H197.961Z" fill="#D2DCFF"/>
<path d="M144.115 331.303L142.745 342.664L131.931 432.32H127.935L138.802 342.22L140.119 331.303H144.115Z" fill="#D2DCFF"/>
<path d="M197.961 432.32H193.963L192.279 418.35L190.281 401.784L183.709 347.297L181.78 331.303H185.776L187.761 347.753L192.279 385.217L194.277 401.782L197.961 432.32Z" fill="#D2DCFF"/>
<path d="M251.805 432.32H247.809L238.353 353.913H238.352L235.625 331.303H239.621L242.401 354.35L251.805 432.32Z" fill="#D2DCFF"/>
<path d="M144.31 263.775H140.313V324.88H144.31V263.775Z" fill="#D2DCFF"/>
<path d="M198.612 263.775H194.616V324.881H198.612V263.775Z" fill="#D2DCFF"/>
<path d="M241.3 324.88H186.394C188.167 324.88 189.605 326.319 189.605 328.092C189.605 329.865 188.167 331.303 186.394 331.303H241.3C243.073 331.303 244.511 329.865 244.511 328.092C244.511 326.319 243.073 324.88 241.3 324.88Z" fill="#D2DCFF"/>
<path d="M189.605 328.092C189.605 326.319 188.167 324.88 186.394 324.88H144.396H138.986C137.213 324.88 135.774 326.319 135.774 328.092C135.774 329.865 137.213 331.303 138.986 331.303H144.396H186.394C188.167 331.303 189.605 329.865 189.605 328.092Z" fill="#86A2E2"/>
<path d="M200.283 263.775H138.644C135.292 263.775 132.573 261.057 132.573 257.704V223.861C132.573 220.509 135.292 217.79 138.644 217.79H200.283C203.635 217.79 206.354 220.509 206.354 223.861V257.704C206.354 261.058 203.637 263.775 200.283 263.775Z" fill="#D2DCFF"/>
<path d="M144.116 331.303L142.746 342.664C141.301 342.502 139.982 342.353 138.803 342.22L140.12 331.303H144.116Z" fill="#AEC3FF"/>
<path d="M185.776 331.303L187.761 347.754C186.403 347.602 185.052 347.449 183.709 347.297L181.78 331.303H185.776Z" fill="#AEC3FF"/>
<path d="M242.401 354.35C241.112 354.212 239.759 354.066 238.353 353.914H238.352L235.625 331.303H239.621L242.401 354.35Z" fill="#AEC3FF"/>
<path d="M140.313 263.775H144.31V272.215L140.313 271.773V263.775Z" fill="#AEC3FF"/>
<path d="M198.613 263.775V278.226L194.617 277.784V263.775H198.613Z" fill="#AEC3FF"/>
<path d="M206.429 156.542C201.734 164.31 187.382 175.487 166.042 168.664V168.666C165.975 168.656 165.909 168.65 165.839 168.65C160.762 168.65 160.408 182.769 168.951 183.585C169.077 183.999 169.206 184.392 169.338 184.762V207.722H188.609V198.797C189.952 199.176 191.239 199.394 192.419 199.394C200.389 199.394 214.246 187.098 214.561 167.727C212.428 167.248 206.429 161.962 206.429 156.542Z" fill="#FCBEB7"/>
<path d="M218.61 162.095C218.61 149.337 207.358 138.999 190.485 138.999C176.462 138.999 171.643 146.737 171.643 146.737C171.643 146.737 158.389 149.602 158.389 166.072C158.389 181.382 158.389 207.723 158.389 207.723H180.167H181.278H197.362H214.846V173.421C216.227 171.726 218.61 167.953 218.61 162.095ZM192.419 199.395C191.24 199.395 189.953 199.177 188.61 198.799V207.723H169.339V184.763C169.207 184.395 169.078 184 168.952 183.586C160.409 182.769 160.763 168.651 165.839 168.651C165.908 168.651 165.976 168.657 166.042 168.667V168.665C187.383 175.488 201.734 164.309 206.43 156.543C206.43 161.963 212.428 167.247 214.563 167.73C214.247 187.099 200.39 199.395 192.419 199.395Z" fill="#311643"/>
<path d="M154.246 206.029L169.339 199.037L177.622 199.257L188.609 199.774L204.4 204.568V224.717H154.246V206.029Z" fill="#FCBEB7"/>
<path d="M204.4 225.951V204.57L188.609 199.776V198.799C184.144 197.539 179.068 194.487 175.342 191.639L204.4 225.951Z" fill="#F9AFAB"/>
<path d="M178.317 184.082C181.22 184.082 183.574 181.728 183.574 178.825C183.574 175.921 181.22 173.568 178.317 173.568C175.413 173.568 173.06 175.921 173.06 178.825C173.06 181.728 175.413 184.082 178.317 184.082Z" fill="#F49795"/>
<path d="M213.885 174.459C213.219 177.99 212.101 181.21 210.691 184.074C207.91 183.936 205.699 181.638 205.699 178.824C205.699 175.92 208.053 173.568 210.955 173.568C212.04 173.568 213.048 173.897 213.885 174.459Z" fill="#F49795"/>
<path d="M204.993 162.836C201.155 162.836 197.985 165.755 197.586 169.489C195.5 168.507 193.658 169.039 192.685 169.485C192.284 165.753 189.117 162.836 185.28 162.836C181.172 162.836 177.83 166.178 177.83 170.286C177.83 174.393 181.172 177.735 185.28 177.735C189.296 177.735 192.578 174.541 192.722 170.559C193.341 170.203 195.306 169.295 197.549 170.567C197.698 174.544 200.979 177.735 204.992 177.735C209.1 177.735 212.441 174.393 212.441 170.286C212.441 166.178 209.101 162.836 204.993 162.836ZM185.28 176.761C181.71 176.761 178.804 173.857 178.804 170.286C178.804 166.716 181.709 163.811 185.28 163.811C188.851 163.811 191.755 166.716 191.755 170.286C191.755 173.857 188.851 176.761 185.28 176.761ZM204.993 176.761C201.423 176.761 198.517 173.857 198.517 170.286C198.517 166.716 201.422 163.811 204.993 163.811C208.564 163.811 211.469 166.716 211.469 170.286C211.469 173.857 208.564 176.761 204.993 176.761Z" fill="white"/>
<path d="M204.996 175.05C204.41 175.05 203.934 174.573 203.934 173.987V172.001C203.934 171.413 204.41 170.937 204.996 170.937C205.583 170.937 206.059 171.413 206.059 172.001V173.987C206.059 174.573 205.584 175.05 204.996 175.05Z" fill="#311643"/>
<path d="M185.602 175.05C185.015 175.05 184.539 174.574 184.539 173.987V172.001C184.539 171.414 185.015 170.937 185.602 170.937C186.19 170.937 186.665 171.414 186.665 172.001V173.987C186.666 174.574 186.19 175.05 185.602 175.05Z" fill="#311643"/>
<path d="M193.193 187.677C191.296 187.677 190.004 186.963 189.221 186.314C188.234 185.494 187.825 184.6 187.807 184.562C187.696 184.316 187.806 184.028 188.051 183.917C188.296 183.807 188.583 183.916 188.695 184.159C188.751 184.28 190.099 187.106 194.014 186.653C194.283 186.622 194.524 186.814 194.554 187.082C194.585 187.349 194.394 187.591 194.126 187.622C193.799 187.659 193.488 187.677 193.193 187.677Z" fill="#311643"/>
<path d="M236.813 424.727L219.135 417.128L220.041 421.509L198.296 414.68V420.912C198.296 423.103 199.442 425.089 201.243 426.206L203.114 431.552C203.275 432.014 203.711 432.324 204.202 432.324C204.838 432.324 205.354 431.809 205.354 431.172V427.695L220.216 432.324H235.25C237.437 432.324 239.208 430.552 239.208 428.366C239.207 426.782 238.265 425.352 236.813 424.727Z" fill="#2F3D6C"/>
<path d="M275.361 424.727L257.683 417.128L258.589 421.509L236.844 414.68V420.912C236.844 423.103 237.99 425.089 239.791 426.206L241.662 431.552C241.823 432.014 242.259 432.324 242.749 432.324C243.386 432.324 243.901 431.809 243.901 431.172V427.695L258.764 432.324H273.798C275.984 432.324 277.756 430.552 277.756 428.366C277.756 426.782 276.815 425.352 275.361 424.727Z" fill="#2F3D6C"/>
<path d="M198.296 406.392L198.305 414.68L220.041 421.508L219.135 417.129L217.33 416.206L218.908 406.392H198.296Z" fill="#FCBEB7"/>
<path d="M236.844 406.392L236.854 414.68L258.59 421.508L257.683 417.129L255.878 416.209L257.456 406.392H236.844Z" fill="#FCBEB7"/>
<path d="M182.703 288.863V289.642C182.688 309.211 198.548 325.083 218.117 325.083H234.568L236.845 406.393H257.457L272.656 309.445C274.35 298.634 265.992 288.864 255.05 288.864H182.703V288.863Z" fill="#6277D7"/>
<path d="M233.153 315.525L234.568 325.082H231.565L233.153 315.525Z" fill="#4A5EA3"/>
<path d="M150.366 303.634C151.398 315.764 161.544 325.083 173.718 325.083H196.02L198.297 406.393H218.909L233.947 310.469C235.726 299.121 226.953 288.864 215.465 288.864H213.816L209.084 274.723H154.787L150.659 297.462C150.289 299.497 150.19 301.572 150.366 303.634Z" fill="#6277D7"/>
<path d="M182.06 215.625C185.72 215.625 188.647 212.101 190.621 208.531H169.748C172.931 212.091 177.291 215.625 182.06 215.625Z" fill="white"/>
<path d="M221.286 216.169L219.842 213.921C217.967 211.002 215.328 208.679 212.238 207.188C211.377 206.773 210.483 206.423 209.558 206.141L193.476 201.244C193.476 201.826 192.464 205.198 190.621 208.532C188.647 212.102 185.72 215.626 182.06 215.626C177.292 215.626 172.932 212.092 169.748 208.532C166.518 204.919 164.501 201.279 164.501 201.279L150.13 207.938C144.249 210.664 139.918 215.906 138.353 222.198L131.947 242.668C130.851 246.171 130.293 249.821 130.293 253.492V255.187C130.293 259.587 133.861 263.153 138.26 263.153H153.581L154.786 274.721H209.083L222.768 218.475L221.286 216.169Z" fill="#FE9ECC"/>
<path d="M182.595 220.703C179.576 220.703 176.505 219.785 173.465 217.973C171.052 216.535 168.653 214.534 166.335 212.023C162.401 207.764 160.003 203.416 159.979 203.373L160.787 202.999C160.81 203.041 163.135 207.256 166.999 211.436C169.258 213.879 171.589 215.824 173.927 217.216C176.825 218.942 179.742 219.816 182.595 219.816C185.289 219.816 187.715 218.917 189.806 217.144C191.498 215.709 192.983 213.701 194.217 211.176C196.338 206.836 196.986 202.356 196.992 202.312L197.873 202.581C197.847 202.765 197.199 207.081 195.022 211.547C193.735 214.188 192.175 216.296 190.388 217.814C188.13 219.731 185.508 220.703 182.595 220.703Z" fill="white"/>
<path d="M272.67 309.336C270.87 311.275 268.298 312.489 265.442 312.489C259.992 312.489 255.574 308.071 255.574 302.621C255.574 297.172 259.992 292.755 265.442 292.755C265.698 292.755 265.953 292.765 266.205 292.784C270.947 296.6 273.662 302.771 272.67 309.336Z" fill="#4A5EA3"/>
<path d="M234.173 307.311C232.505 310.395 229.243 312.489 225.491 312.489C220.042 312.489 215.625 308.071 215.625 302.621C215.625 297.172 220.042 292.755 225.491 292.755C226.022 292.755 226.542 292.798 227.05 292.879C231.359 296.287 234.106 301.532 234.173 307.311Z" fill="#4A5EA3"/>
<path d="M137.458 263.152H197.034V255.632L138.276 248.872C134.023 248.382 130.293 251.707 130.293 255.989C130.294 259.945 133.501 263.152 137.458 263.152Z" fill="#FCBEB7"/>
<path d="M271.564 218.474H210.691C208.251 218.474 206.105 220.09 205.432 222.437L194.906 259.099H171.665C170.566 259.099 169.629 259.953 169.591 261.051C169.551 262.204 170.472 263.152 171.617 263.152H200.779H262.567L274.337 222.153C274.866 220.311 273.482 218.474 271.564 218.474Z" fill="#4A5EA3"/>
<path d="M238.914 242.449C239.065 240.737 238.236 239.266 237.063 239.163C235.891 239.06 234.818 240.364 234.667 242.076C234.517 243.787 235.345 245.259 236.518 245.362C237.691 245.465 238.764 244.161 238.914 242.449Z" fill="#2F3D6C"/>
<path d="M154.785 274.721L152.613 286.686L210.331 278.452L209.083 274.721H154.785Z" fill="#4A5EA3"/>
<path d="M151.662 211.353C151.662 214.963 148.736 217.89 145.125 217.89C143.475 217.89 141.968 217.278 140.817 216.27C142.999 212.668 146.222 209.748 150.129 207.937L150.567 207.734C151.26 208.77 151.662 210.016 151.662 211.353Z" fill="#FF78BA"/>
<path d="M221.286 216.169C220.273 216.815 219.07 217.188 217.781 217.188C214.17 217.188 211.243 214.262 211.243 210.651C211.243 209.38 211.608 208.191 212.237 207.186C215.328 208.678 217.967 211 219.841 213.92L221.286 216.169Z" fill="#FF78BA"/>
<path d="M200.383 240.027C200.13 240.907 189.074 252.813 189.074 252.813L159.614 251.328L195.94 255.508L200.383 240.027Z" fill="#FF78BA"/>
<path d="M84.015 269.576L78.6295 313.118L63.886 432.322H59.8887L74.5906 313.458L80.0189 269.576H84.015Z" fill="#D2DCFF"/>
<path d="M136.908 432.322H132.911L117.759 309.818L112.782 269.575H116.778L121.715 309.485L136.908 432.322Z" fill="#D2DCFF"/>
<path d="M80.0191 269.575H84.0152L78.6297 313.117L74.5908 313.458L80.0191 269.575Z" fill="#AEC3FF"/>
<path d="M116.778 269.575L121.715 309.485L117.759 309.818L112.782 269.575H116.778Z" fill="#AEC3FF"/>
<path d="M337.337 432.322H333.341L316.12 293.089L313.212 269.576H317.208L320.076 292.756L337.337 432.322Z" fill="#D2DCFF"/>
<path d="M320.076 292.756L316.12 293.089L313.212 269.576H317.208L320.076 292.756Z" fill="#AEC3FF"/>
<path d="M327.799 263.152H123.972V269.574H327.799C329.572 269.574 331.011 268.136 331.011 266.363C331.011 264.59 329.572 263.152 327.799 263.152Z" fill="#D2DCFF"/>
<path d="M82.482 263.152H70.4377C68.6647 263.152 67.2266 264.59 67.2266 266.363C67.2266 268.136 68.6647 269.574 70.4377 269.574H82.482H123.972V263.152H82.482Z" fill="#86A2E2"/>
<path d="M323.213 255.973V254.337C323.213 253.83 322.803 253.42 322.297 253.42H284.308C282.391 253.42 280.838 254.974 280.838 256.89V259.682C280.838 261.599 282.391 263.153 284.308 263.153H322.297C322.803 263.153 323.213 262.742 323.213 262.237V260.599C323.213 260.093 322.803 259.682 322.297 259.682H285.703C284.933 259.682 284.308 259.058 284.308 258.287C284.308 257.516 284.933 256.891 285.703 256.891H322.297C322.804 256.89 323.213 256.481 323.213 255.973Z" fill="#6277D7"/>
<path d="M321.573 256.891V259.683H285.704C284.933 259.683 284.309 259.058 284.309 258.287C284.309 257.516 284.933 256.892 285.704 256.892H321.573V256.891Z" fill="#D2DCFF"/>
<path d="M320.5 246.241V244.604C320.5 244.098 320.089 243.687 319.583 243.687H287.023C285.106 243.687 283.553 245.241 283.553 247.158V249.95C283.553 251.867 285.106 253.42 287.023 253.42H319.583C320.089 253.42 320.5 253.01 320.5 252.503V250.866C320.5 250.36 320.089 249.949 319.583 249.949H288.418C287.647 249.949 287.023 249.324 287.023 248.554C287.023 247.783 287.647 247.158 288.418 247.158H319.583C320.089 247.157 320.5 246.747 320.5 246.241Z" fill="#F9A0C0"/>
<path d="M319.292 247.157V249.949H288.418C287.647 249.949 287.022 249.324 287.022 248.553C287.022 247.783 287.647 247.158 288.418 247.158H319.292V247.157Z" fill="#FFD9E8"/>
<path d="M100.375 247.534H118.301C119.186 247.534 119.871 248.307 119.766 249.185L118.249 261.852C118.16 262.593 117.532 263.152 116.785 263.152H101.892C101.145 263.152 100.516 262.593 100.427 261.852L98.9109 249.185C98.8064 248.307 99.4916 247.534 100.375 247.534Z" fill="#D2DCFF"/>
<path d="M115.492 242.365V236.605L112.046 243.152V232.519L109.338 239.214L106.631 232.519V243.152L103.184 236.605V242.365L98.1621 234.291L100.374 247.534H109.338H118.302L120.514 234.291L115.492 242.365Z" fill="#6277D7"/>
<path d="M137.557 260.744C140.184 260.744 142.313 258.615 142.313 255.988C142.313 253.362 140.184 251.232 137.557 251.232C134.93 251.232 132.801 253.362 132.801 255.988C132.801 258.615 134.93 260.744 137.557 260.744Z" fill="#F9AFAB"/>
<path d="M556.366 331.041L553.696 353.19L550.487 379.784L548.471 396.504L547.784 402.174L545.768 418.898L544.067 432.998H540.033L543.754 402.178L545.768 385.455L546.453 379.784L548.471 363.063V363.059L549.809 351.964L552.331 331.041H556.366Z" fill="#D2DCFF"/>
<path d="M583.385 432.998H579.352L570.363 358.464L567.054 331.041H571.088L574.555 359.788L583.385 432.998Z" fill="#D2DCFF"/>
<path d="M529.884 331.041L528.184 345.125L521.303 402.174L519.287 418.898L517.586 432.998H513.552L517.269 402.178L519.287 385.455L524.3 343.896L525.85 331.041H529.884Z" fill="#D2DCFF"/>
<path d="M556.903 432.998H552.871L548.471 396.504L546.453 379.784L542.83 349.755L540.572 331.041H544.606L547.027 351.082L548.471 363.059V363.063L550.487 379.784L556.903 432.998Z" fill="#D2DCFF"/>
<path d="M573.811 331.039H521.468C519.728 331.039 518.318 329.628 518.318 327.89V327.707C518.318 325.967 519.729 324.558 521.468 324.558H573.811C575.55 324.558 576.96 325.969 576.96 327.707V327.89C576.96 329.628 575.55 331.039 573.811 331.039Z" fill="#D2DCFF"/>
<path d="M548.57 331.039H521.468C519.728 331.039 518.318 329.628 518.318 327.89V327.707C518.318 325.967 519.729 324.558 521.468 324.558H548.57C550.31 324.558 551.72 325.969 551.72 327.707V327.89C551.72 329.628 550.31 331.039 548.57 331.039Z" fill="#86A2E2"/>
<path d="M538.593 308.793H556.686C557.578 308.793 558.27 309.572 558.165 310.459L556.634 323.246C556.545 323.994 555.91 324.557 555.156 324.557H540.123C539.369 324.557 538.735 323.994 538.645 323.246L537.114 310.459C537.009 309.573 537.701 308.793 538.593 308.793Z" fill="#D2DCFF"/>
<path d="M553.852 303.576V297.762L550.372 304.37V293.637L547.64 300.396L544.907 293.637V304.37L541.429 297.762V303.576L536.36 295.426L538.593 308.793H547.64H556.687L558.92 295.426L553.852 303.576Z" fill="#FE9ECC"/>
<path d="M529.884 331.041L528.183 345.125L524.3 343.896L525.85 331.041H529.884Z" fill="#AEC3FF"/>
<path d="M547.027 351.082L542.83 349.755L540.572 331.041H544.606L547.027 351.082Z" fill="#AEC3FF"/>
<path d="M556.366 331.041L553.697 353.19L549.81 351.964L552.332 331.041H556.366Z" fill="#AEC3FF"/>
<path d="M574.555 359.788L570.363 358.464L567.054 331.041H571.088L574.555 359.788Z" fill="#AEC3FF"/>
<path d="M127.934 97.0188V145.95C127.934 147.677 126.534 149.076 124.807 149.076H65.9852C64.2585 149.076 62.8584 147.677 62.8584 145.95V97.0188C62.8584 95.292 64.2573 93.8918 65.9852 93.8918H124.807C126.534 93.8918 127.934 95.292 127.934 97.0188Z" fill="#FFD9E8"/>
<path d="M127.934 97.0188V106.244H62.8584V97.0188C62.8584 95.292 64.2585 93.8918 65.9852 93.8918H124.807C126.534 93.8918 127.934 95.292 127.934 97.0188Z" fill="#FE9ECC"/>
<path d="M80.4938 97.8088C79.6019 97.8088 78.8799 97.0869 78.8799 96.1951V91.5907C78.8799 90.7 79.6031 89.9769 80.4938 89.9769C81.3856 89.9769 82.1077 90.7 82.1077 91.5907V96.1951C82.1089 97.0869 81.3856 97.8088 80.4938 97.8088Z" fill="#FE9ECC"/>
<path d="M110.297 97.8085C109.406 97.8085 108.684 97.0866 108.684 96.1947V91.5903C108.684 90.6997 109.407 89.9766 110.297 89.9766C111.189 89.9766 111.911 90.6997 111.911 91.5903V96.1947C111.911 97.0866 111.189 97.8085 110.297 97.8085Z" fill="#FE9ECC"/>
<path d="M81.4416 129.032L88.3876 122.794C88.7415 122.474 89.0943 122.112 89.4482 121.707C89.8021 121.303 89.979 120.832 89.979 120.293C89.979 119.687 89.7592 119.211 89.3222 118.865C88.884 118.52 88.371 118.347 87.7819 118.347C87.0742 118.347 86.5232 118.566 86.1277 119.004C85.7323 119.442 85.5091 119.982 85.458 120.621L81.6696 120.343C81.7195 119.416 81.9131 118.612 82.2504 117.931C82.5876 117.249 83.0329 116.68 83.5887 116.225C84.1444 115.771 84.7965 115.43 85.5459 115.203C86.2952 114.976 87.1075 114.862 87.9827 114.862C88.7914 114.862 89.549 114.976 90.2556 115.203C90.9622 115.43 91.5775 115.767 92.1 116.214C92.6214 116.66 93.0299 117.219 93.3256 117.894C93.6201 118.567 93.7673 119.351 93.7673 120.243C93.7673 120.815 93.7078 121.333 93.5903 121.796C93.4727 122.259 93.3077 122.681 93.0975 123.059C92.8873 123.437 92.6379 123.788 92.3529 124.107C92.0667 124.428 91.7543 124.739 91.4183 125.042L85.9876 129.715H93.918V133.05H81.4404V129.032H81.4416Z" fill="#FE9ECC"/>
<path d="M102.86 126.658C102.659 126.708 102.457 126.75 102.255 126.784C102.053 126.818 101.842 126.834 101.623 126.834C100.781 126.834 100.015 126.683 99.3251 126.379C98.634 126.076 98.0449 125.663 97.5569 125.142C97.0688 124.62 96.6899 124.001 96.4203 123.285C96.1508 122.57 96.0166 121.808 96.0166 120.999C96.0166 120.073 96.1887 119.236 96.5343 118.486C96.8787 117.737 97.3514 117.093 97.9487 116.554C98.546 116.015 99.2491 115.598 100.058 115.304C100.867 115.009 101.742 114.862 102.685 114.862C103.611 114.862 104.481 115.009 105.298 115.304C106.115 115.598 106.822 116.015 107.421 116.554C108.018 117.093 108.489 117.737 108.835 118.486C109.179 119.236 109.353 120.074 109.353 120.999C109.353 121.639 109.293 122.224 109.176 122.755C109.058 123.285 108.903 123.786 108.709 124.258C108.516 124.729 108.288 125.179 108.028 125.609C107.766 126.039 107.493 126.481 107.207 126.936L103.292 133.048H98.6696L102.86 126.658ZM99.8037 121.151C99.8037 121.96 100.069 122.628 100.599 123.159C101.13 123.69 101.824 123.955 102.684 123.955C103.543 123.955 104.237 123.69 104.768 123.159C105.299 122.628 105.563 121.96 105.563 121.151C105.563 120.343 105.299 119.674 104.768 119.143C104.237 118.612 103.543 118.347 102.684 118.347C101.824 118.347 101.13 118.612 100.599 119.143C100.07 119.674 99.8037 120.344 99.8037 121.151Z" fill="#FE9ECC"/>
<path d="M102.872 142.446H87.9207C87.5573 142.446 87.2627 142.151 87.2627 141.788C87.2627 141.425 87.5573 141.13 87.9207 141.13H102.872C103.235 141.13 103.53 141.425 103.53 141.788C103.53 142.151 103.235 142.446 102.872 142.446Z" fill="#FE9ECC"/>
<path d="M43.1327 367.201C57.2362 341.38 12.7146 329.238 1.98267 339.479C-8.75047 349.722 26.8311 397.046 43.1327 367.201Z" fill="#FE9ECC"/>
<path d="M61.85 359.319C89.5261 359.319 77.0008 309.817 65.168 309.817C50.333 309.818 29.8739 359.319 61.85 359.319Z" fill="#FE9ECC"/>
<path d="M83.1818 377.276C106 395.851 126.054 354.289 117.94 341.869C109.827 329.448 56.8073 355.806 83.1818 377.276Z" fill="#FE9ECC"/>
<path d="M54.0843 389.566C50.233 380.654 44.5958 372.351 37.3303 364.888C24.969 352.193 11.9676 346.239 11.837 346.181C11.4498 346.006 10.9938 346.178 10.8192 346.564C10.6446 346.951 10.8168 347.406 11.2028 347.582C11.3298 347.639 24.1068 353.498 36.265 366.001C43.3903 373.327 48.9149 381.471 52.6842 390.207C53.1117 391.199 53.5095 392.2 53.8919 393.207H55.5367C55.0842 391.983 54.6032 390.768 54.0843 389.566Z" fill="#FF78BA"/>
<path d="M64.4799 319.968C64.5298 319.546 64.2281 319.164 63.8065 319.113C63.3837 319.062 63.0025 319.363 62.9527 319.786C62.9028 320.206 59.0219 353.38 59.2202 393.207H60.758C60.5597 353.483 64.43 320.387 64.4799 319.968Z" fill="#FF78BA"/>
<path d="M110.255 347.43C110.019 347.076 109.541 346.981 109.189 347.218C109.078 347.291 97.9769 354.759 86.5562 367.04C80.3357 373.729 73.2651 382.697 68.085 393.207H69.8045C74.8683 383.161 81.6634 374.564 87.6582 368.114C98.959 355.957 109.933 348.57 110.044 348.497C110.395 348.262 110.49 347.784 110.255 347.43Z" fill="#FF78BA"/>
<path d="M60.7576 393.207H59.2198H55.5371H53.8923H32.4249C31.5996 393.207 31.0141 394.013 31.2694 394.798L32.6244 398.956L33.3108 401.06L43.1212 431.16C43.3872 431.977 44.1496 432.531 45.0082 432.531H80.3701C81.2287 432.531 81.9911 431.977 82.2571 431.16L92.0677 401.06L92.7528 398.956L94.1078 394.798C94.3643 394.013 93.7789 393.207 92.9535 393.207H69.7985H68.0789H60.7576Z" fill="#D2DCFF"/>
<path d="M92.7566 398.956L92.0714 401.059H33.3122L32.627 398.956H92.7566Z" fill="#AEC3FF"/>
</svg>
